<svg aria-hidden="true" style="position:absolute;width:0;height:0" xmlns="http://www.w3.org/2000/svg" fill="#fefefe" overflow="hidden"><defs><symbol id="clock" viewBox="0 0 32 32" fill="#fefefe"><path d="M16 0C7.178 0 0 7.178 0 16s7.178 16 16 16 16-7.178 16-16S24.822 0 16 0zm0 30C8.28 30 2 23.72 2 16S8.28 2 16 2s14 6.28 14 14-6.28 14-14 14z"/><path d="M17 6h-2v10.414l6.293 6.293 1.414-1.414L17 15.586z"/></symbol><symbol id="compass" viewBox="0 0 32 32" fill="#1abc9c"><path d="M14.259 16.641l-3.483 6.963 6.966-3.48 3.482-6.964-6.964 3.482zm2.565 2.564l-3.294 1.646 1.647-3.293 3.294-1.646-1.647 3.293z"/><path d="M16 8.618c-5.435 0-9.84 4.406-9.84 9.84s4.406 9.84 9.84 9.84 9.84-4.406 9.84-9.84c0-5.435-4.406-9.84-9.84-9.84zm0 18.449c-4.747 0-8.609-3.862-8.609-8.609S11.253 9.849 16 9.849s8.609 3.862 8.609 8.609-3.862 8.609-8.609 8.609z"/><path d="M18.279 5.123a3.038 3.038 0 00.799-2.045 3.078 3.078 0 10-6.156 0c0 .79.308 1.502.799 2.045C7.329 6.208 2.458 11.757 2.458 18.458 2.458 25.937 8.521 32 16 32s13.542-6.063 13.542-13.542c0-6.701-4.871-12.251-11.263-13.335zM16 1.231a1.85 1.85 0 011.847 1.847c0 1-.799 1.811-1.791 1.841l-.055-.002-.055.002a1.845 1.845 0 01-1.791-1.841 1.85 1.85 0 011.847-1.847zm0 29.538c-6.788 0-12.311-5.523-12.311-12.311S9.212 6.147 16 6.147s12.311 5.523 12.311 12.311S22.788 30.769 16 30.769z"/></symbol><symbol id="email" viewBox="0 0 32 32" fill="#fefefe"><path d="M29.188 3.813H2.813A2.818 2.818 0 000 6.626v18.75a2.818 2.818 0 002.813 2.813h26.375a2.818 2.818 0 002.813-2.813V6.626a2.818 2.818 0 00-2.813-2.813zm-.389 1.875L16.06 18.428 3.21 5.688h25.589zM1.875 24.987V7.005l9.03 8.953-9.03 9.03zm1.326 1.326l9.036-9.036 3.166 3.139a.938.938 0 001.323-.003l3.087-3.087 8.987 8.987H3.202zm26.924-1.326L21.138 16l8.987-8.987v17.973z"/></symbol><symbol id="fast-forward" viewBox="0 0 32 32" fill="#fefefe"><path d="M13.894 14.076L2.923 6.513c-.466-.322-.949-.492-1.37-.492C.627 6.021 0 6.817 0 8.049v15.903c0 1.232.627 2.028 1.553 2.028.421 0 .903-.17 1.37-.492l10.976-7.563c.731-.506 1.132-1.189 1.132-1.925 0-.734-.407-1.418-1.138-1.924zm16.969 0L19.892 6.513c-.466-.322-.95-.492-1.371-.492-.926 0-1.553.796-1.553 2.028v15.903c0 1.232.628 2.028 1.553 2.028.421 0 .904-.17 1.371-.492l10.975-7.564c.732-.506 1.133-1.189 1.133-1.925 0-.734-.406-1.418-1.137-1.924z"/></symbol><symbol id="gear" viewBox="0 0 32 32" fill="#1abc9c"><path d="M16 8.351c-4.218 0-7.649 3.432-7.649 7.649s3.432 7.649 7.649 7.649 7.649-3.432 7.649-7.649S20.217 8.351 16 8.351zm0 13.386c-3.163 0-5.737-2.574-5.737-5.737s2.574-5.737 5.737-5.737 5.737 2.574 5.737 5.737-2.574 5.737-5.737 5.737z"/><path d="M31.247 12.356l-2.459-.535a13.515 13.515 0 00-.791-1.909l1.362-2.118a.956.956 0 00-.128-1.193l-3.832-3.832a.956.956 0 00-1.193-.128l-2.118 1.362a13.356 13.356 0 00-1.909-.792L19.644.752a.957.957 0 00-.934-.753h-5.418a.955.955 0 00-.934.753l-.535 2.459c-.655.214-1.293.479-1.909.792L7.796 2.641a.956.956 0 00-1.193.128L2.771 6.601a.956.956 0 00-.128 1.193l1.362 2.118a13.356 13.356 0 00-.792 1.909l-2.459.535a.957.957 0 00-.753.934v5.418c0 .45.313.839.753.934l2.459.535c.214.655.479 1.293.792 1.909l-1.362 2.118a.956.956 0 00.128 1.193l3.832 3.832a.956.956 0 001.193.128l2.118-1.362c.615.313 1.254.578 1.909.791l.535 2.459a.957.957 0 00.934.753h5.418c.45 0 .839-.313.934-.753l.535-2.459a13.515 13.515 0 001.909-.791l2.118 1.362a.956.956 0 001.193-.128l3.832-3.832a.956.956 0 00.128-1.193l-1.362-2.118c.313-.615.578-1.254.791-1.909l2.459-.535a.957.957 0 00.753-.934V13.29a.955.955 0 00-.753-.934zm-1.159 5.582l-2.255.49a.956.956 0 00-.718.677 11.476 11.476 0 01-1.059 2.555.956.956 0 00.028.987l1.249 1.942-2.741 2.742-1.943-1.249a.954.954 0 00-.987-.028c-.807.455-1.666.812-2.555 1.059a.956.956 0 00-.677.718l-.49 2.255h-3.877l-.49-2.255a.956.956 0 00-.678-.718 11.476 11.476 0 01-2.555-1.059.958.958 0 00-.987.028l-1.942 1.249-2.741-2.742 1.249-1.942a.956.956 0 00.029-.987 11.479 11.479 0 01-1.06-2.555.955.955 0 00-.718-.677l-2.255-.49v-3.877l2.255-.49a.956.956 0 00.718-.678c.248-.889.604-1.749 1.059-2.555a.956.956 0 00-.028-.987L4.67 7.409l2.741-2.742 1.943 1.249a.954.954 0 00.987.028 11.448 11.448 0 012.555-1.059.959.959 0 00.678-.718l.49-2.255h3.877l.49 2.255a.956.956 0 00.677.718c.889.248 1.749.604 2.555 1.059a.958.958 0 00.987-.028l1.942-1.249 2.741 2.742-1.249 1.942a.956.956 0 00-.029.987c.455.806.812 1.666 1.06 2.555a.957.957 0 00.718.678l2.255.49z"/></symbol><symbol id="global" viewBox="0 0 32 32" fill="#1abc9c"><path d="M16 0C7.178 0 0 7.178 0 16s7.178 16 16 16 16-7.178 16-16S24.822 0 16 0zm-.937 7.854a21.846 21.846 0 01-4.186-.588c.215-.51.449-1 .701-1.465 1.034-1.905 2.303-3.241 3.485-3.726zm0 1.876v5.333H9.207a23.576 23.576 0 011.024-6.027 23.67 23.67 0 004.832.694zm0 7.208v5.333a23.809 23.809 0 00-4.832.694 23.568 23.568 0 01-1.024-6.027zm0 7.208v5.778c-1.183-.484-2.452-1.821-3.485-3.726a16.392 16.392 0 01-.701-1.465 21.925 21.925 0 014.186-.588zm1.875 0c1.426.061 2.838.262 4.186.588-.215.51-.449 1-.701 1.465-1.034 1.905-2.303 3.241-3.485 3.726zm0-1.876v-5.333h5.856a23.576 23.576 0 01-1.024 6.027 23.67 23.67 0 00-4.832-.694zm0-7.207V9.73a23.809 23.809 0 004.832-.694 23.568 23.568 0 011.024 6.027zm0-7.209V2.076c1.183.484 2.452 1.821 3.485 3.726.252.464.486.954.701 1.465-1.348.326-2.76.526-4.186.588zm5.133-2.947a14.273 14.273 0 00-1.517-2.279 14.118 14.118 0 015 2.978c-.814.436-1.692.815-2.615 1.132a19.154 19.154 0 00-.868-1.831zm-12.142 0a19.154 19.154 0 00-.868 1.831 17.772 17.772 0 01-2.615-1.132 14.15 14.15 0 015-2.978 14.228 14.228 0 00-1.517 2.279zM8.427 8.5a25.1 25.1 0 00-1.097 6.562H1.907A14.06 14.06 0 015.113 7.01 19.275 19.275 0 008.427 8.5zM7.33 16.938A25.094 25.094 0 008.427 23.5a19.24 19.24 0 00-3.314 1.49 14.06 14.06 0 01-3.206-8.052zm1.731 8.324c.262.636.552 1.248.868 1.831.47.865.979 1.628 1.517 2.279a14.135 14.135 0 01-5-2.978 17.772 17.772 0 012.615-1.132zm13.01 1.831c.316-.583.606-1.195.868-1.831.923.317 1.801.696 2.615 1.132a14.15 14.15 0 01-5 2.978 14.228 14.228 0 001.517-2.279zm1.502-3.593a25.1 25.1 0 001.097-6.562h5.423a14.06 14.06 0 01-3.206 8.052 19.275 19.275 0 00-3.314-1.49zm1.097-8.437a25.094 25.094 0 00-1.097-6.562 19.24 19.24 0 003.314-1.49 14.06 14.06 0 013.206 8.052z"/></symbol><symbol id="heart" viewBox="0 0 32 32" fill="#fefefe"><path d="M23.667 1.333c-3.549 0-6.481 3.297-7.667 4.853-1.186-1.556-4.117-4.853-7.667-4.853C3.738 1.333 0 5.558 0 10.75c0 2.833 1.124 5.473 3.092 7.279a.687.687 0 00.105.136l12.332 12.307a.663.663 0 00.942 0l12.874-12.865a5.27 5.27 0 00.322-.326.655.655 0 00.119-.159C31.215 15.372 32 13.115 32 10.75c0-5.192-3.738-9.417-8.333-9.417zm5.009 15.039a.567.567 0 00-.05.068c-.063.072-.131.135-.199.199L15.999 29.058 4.291 17.374a.674.674 0 00-.155-.199c-1.782-1.556-2.803-3.898-2.803-6.425 0-4.457 3.14-8.083 7-8.083 3.816 0 7.074 4.978 7.106 5.028.246.38.875.38 1.121 0 .033-.05 3.29-5.028 7.106-5.028 3.86 0 7 3.626 7 8.083 0 2.1-.707 4.097-1.99 5.622z"/></symbol><symbol id="random" viewBox="0 0 32 32" fill="#fefefe"><path d="M31.64 23.231l-6-5a1.001 1.001 0 00-1.64.768v3h-1.674a3.98 3.98 0 01-3.392-1.88l-6.476-10.36a7.951 7.951 0 00-6.784-3.76H0v4h5.674a3.98 3.98 0 013.392 1.88l6.476 10.36a7.956 7.956 0 006.784 3.76H24v3a1.001 1.001 0 001.64.768l6-5c.23-.19.36-.472.36-.768s-.13-.578-.36-.768z"/><path d="M31.64 7.231l-6-5a1.001 1.001 0 00-1.64.768v3h-1.674a7.951 7.951 0 00-6.784 3.76l-.362.58 2.358 3.774 1.396-2.234a3.98 3.98 0 013.392-1.88H24v3a1 1 0 001.64.768l6-5c.23-.19.36-.472.36-.768s-.13-.578-.36-.768zM10.462 17.885l-1.394 2.234a3.984 3.984 0 01-3.394 1.88H0v4h5.674a7.956 7.956 0 006.784-3.76l.362-.58-2.358-3.774z"/></symbol><symbol id="shopping-cart" viewBox="0 0 32 32" fill="#fefefe"><path d="M10.31 20.688h17.002a.938.938 0 00.901-.68l3.75-13.125a.937.937 0 00-.902-1.195H8.146l-.67-3.016a.937.937 0 00-.915-.734H.936a.938.938 0 000 1.876h4.873l3.385 15.232a2.817 2.817 0 00-1.695 2.581 2.816 2.816 0 002.813 2.813h17a.938.938 0 000-1.876h-17a.937.937 0 01-.003-1.875zM29.82 7.563l-3.214 11.25H11.065l-2.5-11.25z"/><path d="M9.375 27.25c0 1.551 1.262 2.813 2.813 2.813s2.813-1.262 2.813-2.813-1.262-2.813-2.813-2.813-2.813 1.262-2.813 2.813zm2.813-.937c.517 0 .938.421.938.938s-.421.938-.938.938-.938-.421-.938-.938.421-.938.938-.938zm10.437.937c0 1.551 1.262 2.813 2.813 2.813s2.813-1.262 2.813-2.813-1.262-2.813-2.813-2.813-2.813 1.262-2.813 2.813zm2.813-.937c.517 0 .938.421.938.938s-.421.938-.938.938-.938-.421-.938-.938.421-.938.938-.938z"/></symbol><symbol id="strongbox" viewBox="0 0 32 32" fill="#1abc9c"><path d="M30.912 0H8.93a.563.563 0 100 1.126h21.418V28.73H2.744v-4.733h1.394v2.776c0 .311.252.563.563.563h3.246a.563.563 0 100-1.126H5.264v-2.212h.486a.563.563 0 00.563-.563v-5.671a.563.563 0 00-.563-.563h-.486v-4.544h.486a.563.563 0 00.563-.563V6.423a.563.563 0 00-.563-.563h-.486V3.648h22.563v3.044a.563.563 0 101.126 0V3.085a.563.563 0 00-.563-.563H4.7a.563.563 0 00-.563.563v2.776H2.744V1.128h4.222a.563.563 0 100-1.126H2.181a.563.563 0 00-.563.563v5.296h-.529a.563.563 0 00-.563.563v5.671c0 .311.252.563.563.563h.529v4.544h-.529a.563.563 0 00-.563.563v5.671c0 .311.252.563.563.563h.529v5.296c0 .311.252.563.563.563h2.272v1.579c0 .311.252.563.563.563h5.923a.563.563 0 00.563-.563v-1.579H21.59v1.579c0 .311.252.563.563.563h5.923a.563.563 0 00.563-.563v-1.579h2.272a.563.563 0 00.563-.563V.564a.563.563 0 00-.564-.563zM1.652 11.53V6.986h3.536v4.544H1.652zm2.486 1.127v4.544H2.744v-4.544h1.394zM1.652 22.871v-4.544h3.536v4.544H1.652zm3.927 8.002v-1.016h4.796v1.016H5.579zm21.934 0h-4.796v-1.016h4.796v1.016z"/><path d="M28.391 8.091a.563.563 0 00-.563.563V26.21H9.912a.563.563 0 100 1.126h18.48a.563.563 0 00.563-.563V8.654a.563.563 0 00-.563-.563z"/><path d="M16.788 8.75c-3.404 0-6.174 2.77-6.174 6.174s2.77 6.174 6.174 6.174c3.404 0 6.174-2.77 6.174-6.174s-2.77-6.174-6.174-6.174zm5.014 5.61h-2.111a2.93 2.93 0 00-.453-1.091l1.491-1.491c.58.725.964 1.612 1.072 2.582zm-4.451-4.451c.97.108 1.857.493 2.582 1.072l-1.491 1.491a2.946 2.946 0 00-1.091-.453V9.908zm-1.126 0v2.111a2.936 2.936 0 00-1.091.453l-1.491-1.491a5.016 5.016 0 012.582-1.072zm-3.379 1.869l1.491 1.491a2.946 2.946 0 00-.453 1.091h-2.111a5.024 5.024 0 011.072-2.582zm-1.072 3.709h2.111c.077.397.233.767.453 1.091l-1.491 1.491a5.016 5.016 0 01-1.072-2.582zm4.451 4.451a5.024 5.024 0 01-2.582-1.072l1.491-1.491c.324.219.693.375 1.091.453v2.111zm-1.268-5.014c0-1.01.821-1.831 1.831-1.831s1.831.822 1.831 1.831-.822 1.831-1.831 1.831-1.831-.821-1.831-1.831zm2.394 5.014v-2.111a2.936 2.936 0 001.091-.453l1.491 1.491a5.016 5.016 0 01-2.582 1.072zm3.379-1.869l-1.491-1.491c.219-.324.375-.693.453-1.091h2.111a5.024 5.024 0 01-1.072 2.582z"/></symbol><symbol id="telephone" viewBox="0 0 32 32" fill="#fefefe"><path d="M29.623 23.734l-3.96-4.097-.011-.011a2.81 2.81 0 00-3.977 0l-1.808 1.808a2.129 2.129 0 01-3.013 0l-.001-.001-6.287-6.138a2.129 2.129 0 010-3.013l1.808-1.808a2.814 2.814 0 000-3.977L8.397 2.52a2.816 2.816 0 00-3.977 0L3.094 3.846l-.12.121a10.136 10.136 0 00.001 14.343l10.867 10.719a10.135 10.135 0 0014.328.014c.022-.02 1.427-1.314 1.448-1.335a2.816 2.816 0 00.006-3.971zM5.745 3.844a.94.94 0 011.326 0l3.977 3.977a.938.938 0 010 1.326l-.663.663-5.303-5.303.663-.663zM15.166 27.7L4.299 16.981a8.26 8.26 0 01-.517-11.123l5.284 5.284a4.01 4.01 0 00.175 5.478l6.288 6.139a4 4 0 005.476.173l5.284 5.284a8.24 8.24 0 01-11.123-.518zm13.136-1.332l-.63.581-5.334-5.334.663-.663a.937.937 0 011.321-.005l3.969 4.107a.937.937 0 01.011 1.314zM16.064.001a.937.937 0 100 1.874c7.753 0 14.061 6.308 14.061 14.061a.937.937 0 101.874 0C31.999 7.128 24.871 0 16.063 0z"/><path d="M16.064 3.751a.937.937 0 100 1.874c5.686 0 10.312 4.626 10.312 10.312a.937.937 0 101.874 0c0-6.72-5.467-12.187-12.187-12.187z"/><path d="M16.064 7.501a.937.937 0 100 1.874 6.57 6.57 0 016.562 6.562.937.937 0 101.874 0c0-4.652-3.785-8.437-8.437-8.437z"/><path d="M16.064 11.25a.937.937 0 100 1.874 2.815 2.815 0 012.812 2.812.937.937 0 101.874 0 4.692 4.692 0 00-4.687-4.687z"/></symbol></defs></svg>